<svg width="21" height="21" viewBox="0 0 21 21" fill="none" xmlns="http://www.w3.org/2000/svg">
<path d="M16.1889 2.00619L16.7554 5.59133L20.0155 7.25387L18.3715 10.5046L20.0248 13.7554L16.7368 15.418L16.1703 19.0031L12.5573 18.4365L9.98452 21L7.40248 18.3994L3.81734 18.9938L3.24149 15.3808L0 13.7276L1.65325 10.4768L0.00928792 7.25387L3.26935 5.57276L3.83591 2.01548L7.43034 2.60991L10.0124 0L12.5851 2.57276L16.1889 2.00619ZM7.6904 5.86068C7.32091 5.86068 6.96654 6.00746 6.70527 6.26874C6.44399 6.53001 6.29721 6.88437 6.29721 7.25387C6.29721 7.62337 6.44399 7.97773 6.70527 8.239C6.96654 8.50028 7.32091 8.64706 7.6904 8.64706C8.0599 8.64706 8.41426 8.50028 8.67554 8.239C8.93681 7.97773 9.08359 7.62337 9.08359 7.25387C9.08359 6.88437 8.93681 6.53001 8.67554 6.26874C8.41426 6.00746 8.0599 5.86068 7.6904 5.86068ZM12.3344 12.3622C11.9649 12.3622 11.6105 12.509 11.3492 12.7703C11.088 13.0316 10.9412 13.3859 10.9412 13.7554C10.9412 14.1249 11.088 14.4793 11.3492 14.7406C11.6105 15.0018 11.9649 15.1486 12.3344 15.1486C12.7039 15.1486 13.0582 15.0018 13.3195 14.7406C13.5808 14.4793 13.7276 14.1249 13.7276 13.7554C13.7276 13.3859 13.5808 13.0316 13.3195 12.7703C13.0582 12.509 12.7039 12.3622 12.3344 12.3622ZM6.67802 15.1486L14.6563 7.17028L13.3467 5.86068L5.36842 13.839L6.67802 15.1486Z" fill="black"/>
</svg>
