<svg width="212" height="23" viewBox="0 0 212 23" fill="none" xmlns="http://www.w3.org/2000/svg">
<path d="M21.1071 3.75007C20.5089 4.62507 19.7857 5.3706 18.9375 5.98668C18.9464 6.11168 18.9509 6.29918 18.9509 6.54918C18.9509 7.70989 18.7813 8.8706 18.442 10.0313C18.1027 11.1831 17.5848 12.2902 16.8884 13.3527C16.2009 14.4152 15.3795 15.3572 14.4241 16.1786C13.4688 16.9911 12.317 17.6429 10.9688 18.134C9.62054 18.6161 8.17857 18.8572 6.64286 18.8572C4.22321 18.8572 2.00893 18.2099 0 16.9152C0.3125 16.951 0.660714 16.9688 1.04464 16.9688C3.05357 16.9688 4.84375 16.3527 6.41518 15.1206C5.47768 15.1027 4.63839 14.817 3.89732 14.2635C3.15625 13.701 2.64732 12.9867 2.37054 12.1206C2.66518 12.1652 2.9375 12.1876 3.1875 12.1876C3.57143 12.1876 3.95089 12.1385 4.32589 12.0402C3.32589 11.8349 2.49554 11.3394 1.83482 10.5536C1.18304 9.759 0.857143 8.83935 0.857143 7.79471V7.74114C1.46429 8.08043 2.11607 8.26346 2.8125 8.29025C2.22321 7.89739 1.75446 7.384 1.40625 6.75007C1.05804 6.11614 0.883929 5.42864 0.883929 4.68757C0.883929 3.90186 1.08036 3.17418 1.47321 2.50453C2.55357 3.83489 3.86607 4.90185 5.41071 5.70543C6.96429 6.50007 8.625 6.94203 10.3929 7.03132C10.3214 6.69203 10.2857 6.36168 10.2857 6.04025C10.2857 4.84382 10.7054 3.82596 11.5446 2.98668C12.3929 2.13846 13.4152 1.71436 14.6116 1.71436C15.8616 1.71436 16.9152 2.16971 17.7723 3.08043C18.7455 2.89293 19.6607 2.54471 20.5179 2.03578C20.1875 3.06257 19.5536 3.85721 18.6161 4.41971C19.4464 4.33043 20.2768 4.10721 21.1071 3.75007Z" fill="white"/>
<path d="M66.8437 0C67.1562 0 67.424 0.111607 67.6473 0.334821C67.8705 0.558035 67.9821 0.825892 67.9821 1.13839V19.433C67.9821 19.7455 67.8705 20.0134 67.6473 20.2366C67.424 20.4598 67.1562 20.5714 66.8437 20.5714H61.6071V12.6027H64.2723L64.674 9.49554H61.6071V7.51339C61.6071 7.01339 61.7098 6.63839 61.9151 6.38839C62.1294 6.13839 62.5401 6.01339 63.1473 6.01339L64.7812 6V3.22768C64.2187 3.14732 63.424 3.10714 62.3973 3.10714C61.183 3.10714 60.2098 3.46429 59.4776 4.17857C58.7544 4.89286 58.3928 5.90179 58.3928 7.20536V9.49554H55.7142V12.6027H58.3928V20.5714H48.549C48.2365 20.5714 47.9687 20.4598 47.7455 20.2366C47.5223 20.0134 47.4106 19.7455 47.4106 19.433V1.13839C47.4106 0.825892 47.5223 0.558035 47.7455 0.334821C47.9687 0.111607 48.2365 0 48.549 0H66.8437Z" fill="white"/>
<path d="M105.411 6.09815V11.9106H103.469V6.09815H105.411ZM110.741 6.09815V11.9106H108.799V6.09815H110.741ZM110.741 16.2767L114.129 12.8749V2.22761H98.1384V16.2767H102.504V19.183L105.411 16.2767H110.741ZM116.071 0.285645V13.8526L110.259 19.6651H105.893L102.987 22.5714H100.08V19.6651H94.75V4.15618L96.2098 0.285645H116.071Z" fill="white"/>
<path d="M151.933 13.3928L158.415 10.0446L151.933 6.65618V13.3928ZM154.411 1.84814C155.911 1.84814 157.357 1.87047 158.75 1.91511C160.152 1.95082 161.179 1.991 161.83 2.03564L162.808 2.08922C162.817 2.08922 162.893 2.09814 163.036 2.116C163.179 2.12493 163.281 2.13832 163.344 2.15618C163.406 2.16511 163.509 2.18296 163.652 2.20975C163.804 2.23654 163.933 2.27225 164.04 2.31689C164.147 2.36154 164.272 2.41957 164.415 2.491C164.558 2.56243 164.697 2.65172 164.83 2.75886C164.964 2.85707 165.094 2.97314 165.219 3.10707C165.272 3.16064 165.339 3.24547 165.42 3.36154C165.509 3.46868 165.639 3.72761 165.808 4.13832C165.987 4.54904 166.107 4.99993 166.17 5.491C166.241 6.06243 166.295 6.67404 166.33 7.32582C166.375 7.96868 166.402 8.47314 166.411 8.83922V9.37493V11.1964C166.42 12.491 166.339 13.7856 166.17 15.0803C166.107 15.5714 165.996 16.0178 165.835 16.4196C165.674 16.8124 165.531 17.0848 165.406 17.2365L165.219 17.4642C165.094 17.5981 164.964 17.7187 164.83 17.8258C164.697 17.924 164.558 18.0089 164.415 18.0803C164.272 18.1428 164.147 18.1964 164.04 18.241C163.933 18.2856 163.804 18.3214 163.652 18.3481C163.509 18.3749 163.402 18.3973 163.33 18.4151C163.268 18.424 163.165 18.4374 163.022 18.4553C162.889 18.4642 162.817 18.4687 162.808 18.4687C160.567 18.6383 157.768 18.7231 154.411 18.7231C152.563 18.7053 150.955 18.6785 149.589 18.6428C148.232 18.5981 147.339 18.5624 146.911 18.5356L146.255 18.4821L145.772 18.4285C145.451 18.3839 145.205 18.3392 145.036 18.2946C144.875 18.2499 144.647 18.1562 144.353 18.0133C144.067 17.8705 143.817 17.6874 143.603 17.4642C143.549 17.4106 143.478 17.3303 143.389 17.2231C143.308 17.1071 143.179 16.8437 143 16.433C142.83 16.0223 142.714 15.5714 142.652 15.0803C142.58 14.5089 142.522 13.9017 142.478 13.2589C142.442 12.6071 142.42 12.0981 142.411 11.7321V11.1964V9.37493C142.402 8.08029 142.482 6.78564 142.652 5.491C142.714 4.99993 142.826 4.55797 142.987 4.16511C143.147 3.76332 143.29 3.48654 143.415 3.33475L143.603 3.10707C143.728 2.97314 143.857 2.85707 143.991 2.75886C144.125 2.65172 144.264 2.56243 144.406 2.491C144.549 2.41957 144.674 2.36154 144.781 2.31689C144.889 2.27225 145.014 2.23654 145.156 2.20975C145.308 2.18296 145.415 2.16511 145.478 2.15618C145.54 2.13832 145.643 2.12493 145.786 2.116C145.929 2.09814 146.005 2.08922 146.014 2.08922C148.255 1.9285 151.054 1.84814 154.411 1.84814Z" fill="white"/>
<path d="M204.12 12.7098C204.79 12.0402 205.125 11.2321 205.125 10.2857C205.125 9.33929 204.79 8.53125 204.12 7.86161C203.451 7.19196 202.643 6.85714 201.696 6.85714C200.75 6.85714 199.942 7.19196 199.272 7.86161C198.603 8.53125 198.268 9.33929 198.268 10.2857C198.268 11.2321 198.603 12.0402 199.272 12.7098C199.942 13.3795 200.75 13.7143 201.696 13.7143C202.643 13.7143 203.451 13.3795 204.12 12.7098ZM205.433 6.54911C206.46 7.57589 206.973 8.82143 206.973 10.2857C206.973 11.75 206.46 12.9955 205.433 14.0223C204.406 15.0491 203.161 15.5625 201.696 15.5625C200.232 15.5625 198.987 15.0491 197.96 14.0223C196.933 12.9955 196.42 11.75 196.42 10.2857C196.42 8.82143 196.933 7.57589 197.96 6.54911C198.987 5.52232 200.232 5.00893 201.696 5.00893C203.161 5.00893 204.406 5.52232 205.433 6.54911ZM208.058 3.92411C208.299 4.16518 208.42 4.45536 208.42 4.79464C208.42 5.13393 208.299 5.42411 208.058 5.66518C207.817 5.90625 207.527 6.02679 207.187 6.02679C206.848 6.02679 206.558 5.90625 206.317 5.66518C206.076 5.42411 205.955 5.13393 205.955 4.79464C205.955 4.45536 206.076 4.16518 206.317 3.92411C206.558 3.68304 206.848 3.5625 207.187 3.5625C207.527 3.5625 207.817 3.68304 208.058 3.92411ZM202.714 1.84822C202.098 1.84822 201.759 1.84822 201.696 1.84822C201.634 1.84822 201.29 1.84822 200.665 1.84822C200.049 1.83929 199.58 1.83929 199.259 1.84822C198.937 1.84822 198.504 1.86161 197.96 1.88839C197.424 1.90625 196.964 1.95089 196.58 2.02232C196.205 2.08482 195.888 2.16518 195.629 2.26339C195.183 2.44196 194.79 2.70089 194.451 3.04018C194.112 3.37946 193.853 3.77232 193.674 4.21875C193.576 4.47768 193.491 4.79911 193.42 5.18304C193.357 5.55804 193.312 6.01786 193.286 6.5625C193.268 7.09822 193.254 7.52679 193.245 7.84822C193.245 8.16964 193.245 8.64286 193.245 9.26786C193.254 9.88393 193.259 10.2232 193.259 10.2857C193.259 10.3482 193.254 10.692 193.245 11.317C193.245 11.933 193.245 12.4018 193.245 12.7232C193.254 13.0446 193.268 13.4777 193.286 14.0223C193.312 14.558 193.357 15.0179 193.42 15.4018C193.491 15.7768 193.576 16.0938 193.674 16.3527C193.853 16.7991 194.112 17.192 194.451 17.5312C194.79 17.8705 195.183 18.1295 195.629 18.308C195.888 18.4063 196.205 18.4911 196.58 18.5625C196.964 18.625 197.424 18.6696 197.96 18.6964C198.504 18.7143 198.937 18.7277 199.259 18.7366C199.58 18.7366 200.049 18.7366 200.665 18.7366C201.29 18.7277 201.634 18.7232 201.696 18.7232C201.759 18.7232 202.098 18.7277 202.714 18.7366C203.339 18.7366 203.812 18.7366 204.134 18.7366C204.455 18.7277 204.884 18.7143 205.42 18.6964C205.964 18.6696 206.424 18.625 206.799 18.5625C207.183 18.4911 207.504 18.4063 207.763 18.308C208.21 18.1295 208.603 17.8705 208.942 17.5312C209.281 17.192 209.54 16.7991 209.719 16.3527C209.817 16.0938 209.897 15.7768 209.96 15.4018C210.031 15.0179 210.076 14.558 210.094 14.0223C210.12 13.4777 210.134 13.0446 210.134 12.7232C210.143 12.4018 210.143 11.933 210.134 11.317C210.134 10.692 210.134 10.3482 210.134 10.2857C210.134 10.2232 210.134 9.88393 210.134 9.26786C210.143 8.64286 210.143 8.16964 210.134 7.84822C210.134 7.52679 210.12 7.09822 210.094 6.5625C210.076 6.01786 210.031 5.55804 209.96 5.18304C209.897 4.79911 209.817 4.47768 209.719 4.21875C209.54 3.77232 209.281 3.37946 208.942 3.04018C208.603 2.70089 208.21 2.44196 207.763 2.26339C207.504 2.16518 207.183 2.08482 206.799 2.02232C206.424 1.95089 205.964 1.90625 205.42 1.88839C204.884 1.86161 204.455 1.84822 204.134 1.84822C203.812 1.83929 203.339 1.83929 202.714 1.84822ZM211.915 6.04018C211.96 6.82589 211.982 8.24107 211.982 10.2857C211.982 12.3304 211.96 13.7455 211.915 14.5312C211.826 16.3884 211.272 17.8259 210.254 18.8438C209.237 19.8616 207.799 20.4152 205.942 20.5045C205.156 20.5491 203.741 20.5714 201.696 20.5714C199.652 20.5714 198.237 20.5491 197.451 20.5045C195.594 20.4152 194.156 19.8616 193.138 18.8438C192.12 17.8259 191.567 16.3884 191.478 14.5312C191.433 13.7455 191.411 12.3304 191.411 10.2857C191.411 8.24107 191.433 6.82589 191.478 6.04018C191.567 4.18304 192.12 2.74554 193.138 1.72768C194.156 0.709821 195.594 0.15625 197.451 0.0669651C198.237 0.0223217 199.652 0 201.696 0C203.741 0 205.156 0.0223217 205.942 0.0669651C207.799 0.15625 209.237 0.709821 210.254 1.72768C211.272 2.74554 211.826 4.18304 211.915 6.04018Z" fill="white"/>
</svg>
