<svg width="20" height="20" viewBox="0 0 20 20" fill="none" xmlns="http://www.w3.org/2000/svg">
<g clip-path="url(#clip0_1164_693)">
<path d="M18.75 10.6128V18.1128C18.75 18.8028 18.1888 19.3628 17.5 19.3628H11.25V10.6128H18.75Z" fill="black"/>
<path d="M1.25 5.61315H5.205C4.92125 5.4194 4.6775 5.2269 4.5075 5.0544C3.49875 4.04065 3.49875 2.39065 4.5075 1.37689C5.4875 0.389395 7.195 0.391895 8.17375 1.37689C8.71625 1.92064 10.1537 4.1344 9.955 5.61315H10.045C9.8475 4.1344 11.285 1.92064 11.8263 1.37689C12.8063 0.391895 14.5138 0.391895 15.4925 1.37689C16.5 2.39065 16.5 4.04065 15.4938 5.0544C15.3225 5.2269 15.0788 5.4194 14.795 5.61315H18.75C19.4388 5.61315 20 6.1744 20 6.86315V8.73815C20 9.08315 19.72 9.36315 19.375 9.36315H11.25V6.86315H8.75V9.36315H0.625C0.280001 9.36315 0 9.08315 0 8.73815V6.86315C0 6.1744 0.559999 5.61315 1.25 5.61315ZM11.3237 5.5719C11.3237 5.5719 11.3763 5.61315 11.555 5.61315C12.4187 5.61315 14.0675 4.71565 14.6062 4.17315C15.13 3.64565 15.13 2.78565 14.6062 2.25815C14.3525 2.00315 14.0163 1.86314 13.6588 1.86314C13.3025 1.86314 12.9662 2.00315 12.7125 2.25815C11.87 3.10565 11.0325 5.27065 11.3237 5.5719ZM8.44625 5.61315C8.62375 5.61315 8.67625 5.57315 8.67625 5.5719C8.9675 5.27065 8.13 3.10565 7.2875 2.25815C6.78375 1.7494 5.9025 1.74689 5.39375 2.25815C4.86875 2.78565 4.86875 3.64565 5.39375 4.17315C5.9325 4.71565 7.58125 5.61315 8.44625 5.61315Z" fill="black"/>
<path d="M8.75 10.6128V19.3628H2.5C1.81 19.3628 1.25 18.8028 1.25 18.1128V10.6128H8.75Z" fill="black"/>
</g>
<defs>
<clipPath id="clip0_1164_693">
<rect width="20" height="20" fill="white" transform="matrix(-1 0 0 1 20 0)"/>
</clipPath>
</defs>
</svg>
