<svg width="17" height="17" viewBox="0 0 17 17" fill="none" xmlns="http://www.w3.org/2000/svg">
<path d="M0.0078125 8.5C0.0078125 3.81034 3.81034 0.0078125 8.5 0.0078125C13.1897 0.0078125 16.9922 3.81034 16.9922 8.5C16.9922 13.1897 13.1897 16.9922 8.5 16.9922C3.81034 16.9922 0.0078125 13.1897 0.0078125 8.5ZM1.43415 8.5C1.43415 12.4014 4.59859 15.5658 8.5 15.5658C12.4014 15.5658 15.5658 12.4014 15.5658 8.5C15.5658 4.59859 12.4014 1.43415 8.5 1.43415C4.59859 1.43415 1.43415 4.59859 1.43415 8.5Z" fill="#828B8D" stroke="white" stroke-width="0.015625"/>
<path d="M7.8615 12.4777C7.69217 12.3084 7.59705 12.0788 7.59705 11.8393C7.59705 11.5998 7.69217 11.3702 7.8615 11.2008C8.03083 11.0315 8.26048 10.9364 8.49995 10.9364C8.73941 10.9364 8.96907 11.0315 9.1384 11.2008C9.30772 11.3702 9.40285 11.5998 9.40285 11.8393C9.40285 12.0788 9.30772 12.3084 9.1384 12.4777C8.96907 12.6471 8.73941 12.7422 8.49995 12.7422C8.26048 12.7422 8.03083 12.6471 7.8615 12.4777ZM8.9553 9.70647H8.04459C7.96542 9.70647 7.90062 9.64167 7.90062 9.5625V4.40179C7.90062 4.32262 7.96542 4.25781 8.04459 4.25781H8.9553C9.03447 4.25781 9.09928 4.32262 9.09928 4.40179V9.5625C9.09928 9.64167 9.03447 9.70647 8.9553 9.70647Z" fill="#828B8D" stroke="white" stroke-width="0.015625"/>
</svg>
