<svg width="23" height="23" viewBox="0 0 23 23" fill="none" xmlns="http://www.w3.org/2000/svg">
<path d="M4.62556 9.95389C6.46556 13.57 9.43 16.5344 13.0461 18.3744L15.8572 15.5633C16.215 15.2056 16.7133 15.1033 17.1606 15.2439C18.5917 15.7167 20.125 15.9722 21.7222 15.9722C22.0611 15.9722 22.3861 16.1068 22.6257 16.3465C22.8654 16.5861 23 16.9111 23 17.25V21.7222C23 22.0611 22.8654 22.3861 22.6257 22.6257C22.3861 22.8654 22.0611 23 21.7222 23C15.9611 23 10.436 20.7114 6.36229 16.6377C2.28858 12.564 0 7.03887 0 1.27778C0 0.93889 0.134623 0.613882 0.374252 0.374252C0.613882 0.134623 0.93889 0 1.27778 0H5.75C6.08889 0 6.4139 0.134623 6.65353 0.374252C6.89316 0.613882 7.02778 0.93889 7.02778 1.27778C7.02778 2.875 7.28333 4.40833 7.75611 5.83944C7.89667 6.28667 7.79444 6.785 7.43667 7.14278L4.62556 9.95389Z" fill="white"/>
</svg>
